HIERARCHY
ROOT Hips
{
	OFFSET -0.001795 -0.223333 0.028219
	CHANNELS 6 Xposition Yposition Zposition Zrotation Yrotation Xrotation 
	JOINT LeftUpLeg
	{
		OFFSET 0.069520 -0.091406 -0.006815
		CHANNELS 3 Zrotation Yrotation Xrotation
		JOINT LeftLeg
		{
			OFFSET 0.034277 -0.375199 -0.004496
			CHANNELS 3 Zrotation Yrotation Xrotation
			JOINT LeftFoot
			{
				OFFSET -0.013596 -0.397961 -0.043693
				CHANNELS 3 Zrotation Yrotation Xrotation
				JOINT LeftToe
				{
					OFFSET 0.026358 -0.055791 0.119288
					CHANNELS 3 Zrotation Yrotation Xrotation
					End Site
					{
						OFFSET 0.000000 0.000000 0.000000
					}
				}
			}
		}
	}
	JOINT RightUpLeg
	{
		OFFSET -0.067670 -0.090522 -0.004320
		CHANNELS 3 Zrotation Yrotation Xrotation
		JOINT RightLeg
		{
			OFFSET -0.038290 -0.382569 -0.008850
			CHANNELS 3 Zrotation Yrotation Xrotation
			JOINT RightFoot
			{
				OFFSET 0.015774 -0.398415 -0.042312
				CHANNELS 3 Zrotation Yrotation Xrotation
				JOINT RightToe
				{
					OFFSET -0.025372 -0.048144 0.123348
					CHANNELS 3 Zrotation Yrotation Xrotation
					End Site
					{
						OFFSET 0.000000 0.000000 0.000000
					}
				}
			}
		}
	}
	JOINT Spine
	{
		OFFSET -0.002533 0.108963 -0.026696
		CHANNELS 3 Zrotation Yrotation Xrotation
		JOINT Spine1
		{
			OFFSET 0.005487 0.135180 0.001092
			CHANNELS 3 Zrotation Yrotation Xrotation
			JOINT Spine2
			{
				OFFSET 0.001457 0.052922 0.025425
				CHANNELS 3 Zrotation Yrotation Xrotation
				JOINT Neck
				{
					OFFSET -0.002778 0.213870 -0.042857
					CHANNELS 3 Zrotation Yrotation Xrotation
					JOINT Head
					{
						OFFSET 0.005152 0.064970 0.051349
						CHANNELS 3 Zrotation Yrotation Xrotation
						End Site
						{
							OFFSET 0.000000 0.000000 0.000000
						}
					}
				}
				JOINT LeftShoulder
				{
					OFFSET 0.078845 0.121749 -0.034090
					CHANNELS 3 Zrotation Yrotation Xrotation
					JOINT LeftArm
					{
						OFFSET 0.090977 0.030469 -0.008868
						CHANNELS 3 Zrotation Yrotation Xrotation
						JOINT LeftForeArm
						{
							OFFSET 0.259612 -0.012772 -0.027456
							CHANNELS 3 Zrotation Yrotation Xrotation
							JOINT LeftHand
							{
								OFFSET 0.249234 0.008986 -0.001171
								CHANNELS 3 Zrotation Yrotation Xrotation
								End Site
								{
									OFFSET 0.000000 0.000000 0.000000
								}
							}
						}
					}
				}
				JOINT RightShoulder
				{
					OFFSET -0.081759 0.118833 -0.038615
					CHANNELS 3 Zrotation Yrotation Xrotation
					JOINT RightArm
					{
						OFFSET -0.096012 0.032551 -0.009143
						CHANNELS 3 Zrotation Yrotation Xrotation
						JOINT RightForeArm
						{
							OFFSET -0.253742 -0.013329 -0.021401
							CHANNELS 3 Zrotation Yrotation Xrotation
							JOINT RightHand
							{
								OFFSET -0.255298 0.007772 -0.005559
								CHANNELS 3 Zrotation Yrotation Xrotation
								End Site
								{
									OFFSET 0.000000 0.000000 0.000000
								}
							}
						}
					}
				}
			}
		}
	}
}
MOTION
Frames: 15
Frame Time: 0.050000
0.000000 0.954860 0.000000 2.902108 17.385646 3.787471 1.989162 -0.089593 0.094134 -3.487159 0.192843 3.076207 3.435641 10.955835 9.886136 0.000000 0.000000 0.000000 -5.996721 0.240668 -8.388449 2.868911 -0.497955 7.511472 -3.222443 -8.902256 12.961395 0.000000 0.000000 0.000000 9.799876 -2.197346 12.852024 -0.840390 1.148537 -20.352889 -0.422461 -6.276528 25.118470 4.775903 -0.739293 -25.408995 0.000000 0.000000 0.000000 9.407698 -24.017380 6.557597 2.473042 -33.377909 -3.110387 91.936575 -60.532954 -61.134402 0.000000 0.000000 0.000000 21.276679 6.847253 4.059442 35.177805 22.970254 0.408413 152.721004 77.048333 155.277155 0.000000 0.000000 0.000000 
0.000497 0.954098 -0.001268 2.912519 18.935503 4.214460 1.749356 -0.181653 -1.492770 -2.850014 0.104569 3.725067 3.224525 11.176662 11.059596 0.000000 0.000000 0.000000 -6.713289 0.152206 -9.820517 3.972737 -0.825425 8.756076 -3.984086 -10.184913 15.099746 0.000000 0.000000 0.000000 10.006227 -2.605469 14.629173 0.119261 0.930343 -21.539958 -0.102824 -4.737097 24.825823 3.289874 0.680691 -26.714232 0.000000 0.000000 0.000000 10.141689 -23.656853 6.529714 6.614379 -34.446577 -4.292596 94.544333 -60.035855 -64.062298 0.000000 0.000000 0.000000 21.534570 4.679270 3.462933 36.621494 24.811528 0.938318 165.877286 71.612858 172.449318 0.000000 0.000000 0.000000 
0.001044 0.953516 -0.002722 3.145286 18.815989 4.516648 1.710983 -0.243534 -2.419767 -3.361715 0.125276 4.772536 3.371810 11.366660 10.960869 0.000000 0.000000 0.000000 -6.349618 0.205392 -10.351512 3.279445 -0.707538 9.966073 -4.355182 -10.860445 12.737397 0.000000 0.000000 0.000000 10.423579 -2.652214 14.448133 0.052809 0.945619 -20.790180 -0.217739 -5.044196 23.668217 3.167861 0.431209 -24.011853 0.000000 0.000000 0.000000 10.744450 -23.061932 6.336255 6.165290 -36.022845 -4.433283 89.423080 -62.475818 -61.584529 0.000000 0.000000 0.000000 21.252398 5.654076 3.794057 36.537294 25.302304 1.291439 170.618463 72.626859 178.543687 0.000000 0.000000 0.000000 
0.001684 0.953153 -0.004117 3.466589 19.716347 5.087205 1.480707 -0.310188 -3.413613 -3.004430 0.054812 5.495770 2.318140 9.698276 10.470876 0.000000 0.000000 0.000000 -7.442389 0.041924 -11.364458 4.362283 -1.056284 10.929975 -4.462487 -10.949104 13.186833 0.000000 0.000000 0.000000 11.187306 -2.994639 15.210774 0.168261 0.931827 -21.357115 -0.185911 -4.021177 23.475079 3.906294 0.278186 -24.313281 0.000000 0.000000 0.000000 11.889448 -23.171274 6.354204 6.914723 -35.493066 -4.665062 89.426681 -61.748686 -61.547104 0.000000 0.000000 0.000000 20.948313 4.223213 3.344044 36.755975 26.400518 1.573968 177.266137 69.473057 -170.836326 0.000000 0.000000 0.000000 
0.002380 0.953254 -0.005314 3.889771 19.677605 5.444226 1.359594 -0.331042 -3.718766 -3.198159 0.065644 5.763211 1.488026 8.319016 10.192410 0.000000 0.000000 0.000000 -7.746890 -0.000950 -11.793154 4.014678 -0.979060 11.190881 -4.491174 -10.992371 13.124513 0.000000 0.000000 0.000000 11.357744 -3.041788 15.235790 0.397051 0.881405 -21.903045 -0.096171 -3.658604 23.394376 3.526760 0.465110 -23.363863 0.000000 0.000000 0.000000 10.725067 -23.179742 6.524417 7.093849 -36.443465 -4.922292 85.950138 -60.973530 -57.820006 0.000000 0.000000 0.000000 20.603539 4.462591 3.543950 35.332028 27.639366 1.754762 -177.027124 68.106294 -162.093151 0.000000 0.000000 0.000000 
0.003247 0.953795 -0.006510 4.129541 19.403954 5.618823 0.882585 -0.347115 -4.049419 -2.841273 0.023769 5.923375 1.305384 8.272922 10.771881 0.000000 0.000000 0.000000 -8.317111 -0.082474 -12.450033 4.263414 -1.064876 11.745211 -4.261274 -10.601062 13.886164 0.000000 0.000000 0.000000 11.555091 -3.157382 15.635469 0.419508 0.871778 -22.211352 0.213907 -3.009818 23.761103 3.835431 0.367516 -23.562077 0.000000 0.000000 0.000000 9.870509 -23.470519 6.697483 7.084460 -36.497089 -4.981894 84.991960 -59.735713 -55.999604 0.000000 0.000000 0.000000 20.446712 4.855245 3.894904 33.932229 29.058512 1.887899 -171.211860 66.294543 -152.514756 0.000000 0.000000 0.000000 
0.004222 0.954063 -0.007896 4.416257 19.736064 5.680654 0.719426 -0.344385 -4.063849 -2.851425 0.027342 5.754913 0.647249 7.422659 11.077411 0.000000 0.000000 0.000000 -8.836824 -0.174243 -12.418051 4.395390 -1.124775 11.958679 -4.087355 -10.237291 13.652292 0.000000 0.000000 0.000000 11.808695 -3.252587 15.774426 0.219736 0.925903 -22.205076 0.398151 -3.240954 23.800678 4.043563 0.192734 -23.268852 0.000000 0.000000 0.000000 8.455321 -23.346610 6.817943 6.820711 -36.408803 -4.887639 85.216220 -59.587872 -55.963342 0.000000 0.000000 0.000000 20.130528 5.239617 4.073971 32.339786 30.145090 1.928043 -166.501633 65.778493 -145.330899 0.000000 0.000000 0.000000 
0.005116 0.954692 -0.009748 4.436112 19.595076 5.925763 0.464364 -0.365112 -4.352619 -2.826246 0.033513 5.536331 0.965524 8.063623 11.443077 0.000000 0.000000 0.000000 -9.004175 -0.200009 -12.803239 4.310937 -1.109904 12.176052 -3.690017 -9.504246 13.488154 0.000000 0.000000 0.000000 11.974949 -3.275372 15.695753 0.166447 0.936876 -21.651425 0.716379 -2.879714 23.691064 4.000124 0.244211 -23.163510 0.000000 0.000000 0.000000 7.264467 -23.386791 6.966419 7.317362 -35.991856 -4.932116 86.895018 -58.405153 -56.296807 0.000000 0.000000 0.000000 20.347244 5.294660 4.186930 30.873821 30.201327 1.684762 -166.076755 64.055133 -143.753483 0.000000 0.000000 0.000000 
0.005692 0.955678 -0.012094 4.455242 19.621867 6.411350 0.582824 -0.417360 -4.911304 -2.849535 0.037938 5.455157 0.294915 7.111162 11.584849 0.000000 0.000000 0.000000 -9.246771 -0.248516 -13.484322 4.212833 -1.080618 12.141903 -3.213701 -8.633892 14.256136 0.000000 0.000000 0.000000 11.918956 -3.264617 15.604350 0.435742 0.870076 -21.389165 0.731556 -2.815942 23.646260 3.964798 0.293438 -23.365047 0.000000 0.000000 0.000000 6.257638 -22.738346 6.912472 7.567764 -35.968099 -4.991756 88.040606 -56.523874 -55.429768 0.000000 0.000000 0.000000 20.833243 5.300422 4.246944 29.461217 30.130795 1.427026 -164.904557 62.770168 -141.373291 0.000000 0.000000 0.000000 
0.005712 0.956822 -0.014863 4.444849 19.641509 6.923808 0.639129 -0.469026 -5.463336 -2.993818 0.057903 5.279127 0.144651 6.900244 11.607482 0.000000 0.000000 0.000000 -9.404834 -0.279457 -13.901779 4.168595 -1.040762 11.667737 -2.808245 -7.894830 14.651212 0.000000 0.000000 0.000000 11.693941 -3.171465 15.292677 0.664812 0.811796 -21.245878 0.931740 -2.870757 23.792804 4.101893 0.197850 -23.338555 0.000000 0.000000 0.000000 5.742604 -22.354213 6.862501 7.845965 -35.909299 -5.046324 86.771561 -53.494554 -51.548034 0.000000 0.000000 0.000000 20.702978 5.354272 4.258277 28.857489 29.821743 1.265529 -164.728288 61.589568 -140.418686 0.000000 0.000000 0.000000 
0.005264 0.957562 -0.017848 4.327312 19.663296 7.100319 0.768334 -0.517564 -5.967885 -3.028362 0.052093 5.538030 0.051136 6.718728 11.510079 0.000000 0.000000 0.000000 -9.117193 -0.234828 -14.106566 3.988268 -0.965556 11.172331 -3.099964 -8.440294 15.193559 0.000000 0.000000 0.000000 11.148402 -3.057659 15.268676 0.681407 0.808146 -20.869346 0.928251 -3.260721 23.591992 4.031171 0.178636 -23.370416 0.000000 0.000000 0.000000 5.746493 -21.953774 6.752545 8.268453 -36.480974 -5.227786 84.932175 -51.032488 -47.722707 0.000000 0.000000 0.000000 21.334694 5.159225 4.095587 29.126558 29.419246 1.218796 -166.950690 60.273254 -143.417409 0.000000 0.000000 0.000000 
0.004539 0.958193 -0.020819 3.950492 19.807739 6.994371 0.973448 -0.541265 -6.207829 -2.913902 0.035484 5.623697 0.320087 7.087658 11.367690 0.000000 0.000000 0.000000 -8.636163 -0.155149 -13.856697 3.870084 -0.900750 10.428770 -3.202308 -8.605471 15.441197 0.000000 0.000000 0.000000 10.765909 -2.977095 15.257904 0.817776 0.780297 -21.006450 0.881174 -3.584353 24.073488 4.464528 -0.075850 -23.783284 0.000000 0.000000 0.000000 6.105500 -21.872501 6.683081 8.712886 -37.121930 -5.463469 82.092769 -48.667500 -43.545203 0.000000 0.000000 0.000000 21.572583 5.257547 4.147977 29.811082 29.331094 1.256068 -168.361924 59.755323 -145.405504 0.000000 0.000000 0.000000 
0.003797 0.958499 -0.023574 3.679432 20.091409 7.074566 1.137334 -0.573088 -6.539055 -2.734846 0.005264 5.828806 0.316864 6.814117 10.704509 0.000000 0.000000 0.000000 -8.322262 -0.117203 -13.931400 3.756829 -0.862634 10.059847 -3.208809 -8.569544 15.617206 0.000000 0.000000 0.000000 10.232091 -2.848012 15.103148 0.853404 0.779744 -21.153454 0.712898 -3.799190 24.225152 4.535883 -0.045518 -24.406185 0.000000 0.000000 0.000000 6.567965 -21.938768 6.654043 9.134163 -37.882210 -5.746269 80.744008 -48.022994 -42.053883 0.000000 0.000000 0.000000 21.867814 4.813832 3.933207 31.396898 29.019035 1.379515 -170.453962 58.892455 -148.128904 0.000000 0.000000 0.000000 
0.003208 0.958231 -0.025808 3.381192 19.984515 7.045429 1.351547 -0.578399 -6.584336 -2.755243 0.020577 5.518544 0.617340 7.237584 10.618725 0.000000 0.000000 0.000000 -7.942699 -0.052918 -14.042667 3.487905 -0.789419 9.987448 -2.948581 -8.088794 15.279187 0.000000 0.000000 0.000000 9.786513 -2.701339 14.818239 0.935118 0.759184 -21.302068 0.461484 -3.958154 24.534298 4.763300 -0.125327 -25.070159 0.000000 0.000000 0.000000 7.440714 -21.776311 6.519099 8.847978 -37.736023 -5.637519 81.804617 -48.675447 -43.368369 0.000000 0.000000 0.000000 22.023050 4.776685 3.904413 32.524245 28.838525 1.476178 -171.209146 58.626484 -149.113073 0.000000 0.000000 0.000000 
0.002865 0.957874 -0.027629 2.977421 19.904568 6.729127 1.696531 -0.554078 -6.291604 -2.770584 0.034733 5.209320 0.838439 7.454328 10.356766 0.000000 0.000000 0.000000 -7.607626 0.005404 -13.746610 3.310753 -0.732782 9.725998 -2.432687 -7.141511 15.004700 0.000000 0.000000 0.000000 9.656200 -2.635117 14.654144 0.701455 0.820437 -21.635202 0.509239 -3.839374 24.965151 5.033843 -0.236923 -25.323285 0.000000 0.000000 0.000000 8.222308 -22.169751 6.528478 8.572197 -36.817706 -5.389161 86.216182 -50.605903 -48.448045 0.000000 0.000000 0.000000 22.230423 4.635374 3.896437 33.374234 28.796319 1.538211 -171.111787 59.597035 -149.215938 0.000000 0.000000 0.000000 
